<mxfile host="app.diagrams.net" agent="Mozilla/5.0 (Macintosh; Intel Mac OS X 10_15_7) AppleWebKit/537.36 (KHTML, like Gecko) Chrome/131.0.0.0 Safari/537.36" version="26.0.4">
  <diagram name="Page-1" id="ddwhHq-_0URFEDmxZ6XJ">
    <mxGraphModel dx="1168" dy="1875" grid="1" gridSize="10" guides="1" tooltips="1" connect="1" arrows="1" fold="1" page="1" pageScale="1" pageWidth="850" pageHeight="1100" math="0" shadow="0">
      <root>
        <mxCell id="0" />
        <mxCell id="1" parent="0" />
        <mxCell id="F9g1RhkNLmYPvMSbBIRF-37" value="" style="rounded=0;whiteSpace=wrap;html=1;fillColor=none;fontColor=#333333;strokeColor=#666666;" vertex="1" parent="1">
          <mxGeometry x="140" y="-190" width="630" height="920" as="geometry" />
        </mxCell>
        <mxCell id="F9g1RhkNLmYPvMSbBIRF-2" style="edgeStyle=orthogonalEdgeStyle;rounded=0;orthogonalLoop=1;jettySize=auto;html=1;" edge="1" parent="1" source="F9g1RhkNLmYPvMSbBIRF-1">
          <mxGeometry relative="1" as="geometry">
            <mxPoint x="90" y="340" as="targetPoint" />
          </mxGeometry>
        </mxCell>
        <mxCell id="F9g1RhkNLmYPvMSbBIRF-1" value="User" style="shape=umlActor;verticalLabelPosition=bottom;verticalAlign=top;html=1;outlineConnect=0;" vertex="1" parent="1">
          <mxGeometry x="60" y="260" width="30" height="60" as="geometry" />
        </mxCell>
        <mxCell id="F9g1RhkNLmYPvMSbBIRF-4" value="view Board" style="rounded=1;whiteSpace=wrap;html=1;fillColor=#fff2cc;strokeColor=#d6b656;" vertex="1" parent="1">
          <mxGeometry x="170" y="240" width="120" height="60" as="geometry" />
        </mxCell>
        <mxCell id="F9g1RhkNLmYPvMSbBIRF-5" value="view Article" style="rounded=1;whiteSpace=wrap;html=1;fillColor=#fff2cc;strokeColor=#d6b656;" vertex="1" parent="1">
          <mxGeometry x="170" y="420" width="120" height="60" as="geometry" />
        </mxCell>
        <mxCell id="F9g1RhkNLmYPvMSbBIRF-6" value="Login" style="rounded=1;whiteSpace=wrap;html=1;fillColor=#fff2cc;strokeColor=#d6b656;" vertex="1" parent="1">
          <mxGeometry x="270" y="90" width="120" height="60" as="geometry" />
        </mxCell>
        <mxCell id="F9g1RhkNLmYPvMSbBIRF-7" value="DB Auth" style="rounded=1;whiteSpace=wrap;html=1;fillColor=#fff2cc;strokeColor=#d6b656;" vertex="1" parent="1">
          <mxGeometry x="460" y="40" width="120" height="60" as="geometry" />
        </mxCell>
        <mxCell id="F9g1RhkNLmYPvMSbBIRF-8" value="Login Fail" style="rounded=1;whiteSpace=wrap;html=1;fillColor=#fff2cc;strokeColor=#d6b656;" vertex="1" parent="1">
          <mxGeometry x="460" y="110" width="120" height="60" as="geometry" />
        </mxCell>
        <mxCell id="F9g1RhkNLmYPvMSbBIRF-9" value="Normal Board" style="rounded=1;whiteSpace=wrap;html=1;fillColor=#fff2cc;strokeColor=#d6b656;" vertex="1" parent="1">
          <mxGeometry x="340" y="240" width="120" height="60" as="geometry" />
        </mxCell>
        <mxCell id="F9g1RhkNLmYPvMSbBIRF-10" value="Hashtag Board" style="rounded=1;whiteSpace=wrap;html=1;fillColor=#fff2cc;strokeColor=#d6b656;" vertex="1" parent="1">
          <mxGeometry x="340" y="360" width="120" height="60" as="geometry" />
        </mxCell>
        <mxCell id="F9g1RhkNLmYPvMSbBIRF-11" value="Write Article" style="rounded=1;whiteSpace=wrap;html=1;fillColor=#fff2cc;strokeColor=#d6b656;" vertex="1" parent="1">
          <mxGeometry x="560" y="260" width="120" height="60" as="geometry" />
        </mxCell>
        <mxCell id="F9g1RhkNLmYPvMSbBIRF-12" value="Sorting Articles" style="rounded=1;whiteSpace=wrap;html=1;fillColor=#fff2cc;strokeColor=#d6b656;" vertex="1" parent="1">
          <mxGeometry x="560" y="330" width="120" height="60" as="geometry" />
        </mxCell>
        <mxCell id="F9g1RhkNLmYPvMSbBIRF-13" value="Searching Article" style="rounded=1;whiteSpace=wrap;html=1;fillColor=#fff2cc;strokeColor=#d6b656;" vertex="1" parent="1">
          <mxGeometry x="560" y="400" width="120" height="60" as="geometry" />
        </mxCell>
        <mxCell id="F9g1RhkNLmYPvMSbBIRF-14" value="Article Modify, Delete" style="rounded=1;whiteSpace=wrap;html=1;fillColor=#fff2cc;strokeColor=#d6b656;" vertex="1" parent="1">
          <mxGeometry x="560" y="470" width="120" height="60" as="geometry" />
        </mxCell>
        <mxCell id="F9g1RhkNLmYPvMSbBIRF-15" value="View, Write, Delete Reply" style="rounded=1;whiteSpace=wrap;html=1;fillColor=#fff2cc;strokeColor=#d6b656;" vertex="1" parent="1">
          <mxGeometry x="560" y="540" width="120" height="60" as="geometry" />
        </mxCell>
        <mxCell id="F9g1RhkNLmYPvMSbBIRF-16" value="View, Write, Delete&lt;br&gt;n-th Reply" style="rounded=1;whiteSpace=wrap;html=1;fillColor=#fff2cc;strokeColor=#d6b656;" vertex="1" parent="1">
          <mxGeometry x="560" y="610" width="120" height="60" as="geometry" />
        </mxCell>
        <mxCell id="F9g1RhkNLmYPvMSbBIRF-17" value="DB" style="rounded=0;whiteSpace=wrap;html=1;" vertex="1" parent="1">
          <mxGeometry x="790" y="280" width="90" height="60" as="geometry" />
        </mxCell>
        <mxCell id="F9g1RhkNLmYPvMSbBIRF-20" value="" style="endArrow=none;html=1;rounded=0;exitX=1;exitY=0.3333333333333333;exitDx=0;exitDy=0;exitPerimeter=0;entryX=0;entryY=0.5;entryDx=0;entryDy=0;" edge="1" parent="1" source="F9g1RhkNLmYPvMSbBIRF-1" target="F9g1RhkNLmYPvMSbBIRF-6">
          <mxGeometry width="50" height="50" relative="1" as="geometry">
            <mxPoint x="380" y="240" as="sourcePoint" />
            <mxPoint x="430" y="190" as="targetPoint" />
          </mxGeometry>
        </mxCell>
        <mxCell id="F9g1RhkNLmYPvMSbBIRF-21" value="" style="endArrow=none;html=1;rounded=0;exitX=1;exitY=0.3333333333333333;exitDx=0;exitDy=0;exitPerimeter=0;entryX=0;entryY=0.5;entryDx=0;entryDy=0;" edge="1" parent="1" source="F9g1RhkNLmYPvMSbBIRF-1" target="F9g1RhkNLmYPvMSbBIRF-4">
          <mxGeometry width="50" height="50" relative="1" as="geometry">
            <mxPoint x="380" y="240" as="sourcePoint" />
            <mxPoint x="430" y="190" as="targetPoint" />
          </mxGeometry>
        </mxCell>
        <mxCell id="F9g1RhkNLmYPvMSbBIRF-22" value="" style="endArrow=none;html=1;rounded=0;exitX=1;exitY=0.3333333333333333;exitDx=0;exitDy=0;exitPerimeter=0;entryX=0;entryY=0.5;entryDx=0;entryDy=0;" edge="1" parent="1" source="F9g1RhkNLmYPvMSbBIRF-1" target="F9g1RhkNLmYPvMSbBIRF-5">
          <mxGeometry width="50" height="50" relative="1" as="geometry">
            <mxPoint x="380" y="240" as="sourcePoint" />
            <mxPoint x="430" y="190" as="targetPoint" />
          </mxGeometry>
        </mxCell>
        <mxCell id="F9g1RhkNLmYPvMSbBIRF-27" value="" style="endArrow=classic;html=1;rounded=0;exitX=1;exitY=0.5;exitDx=0;exitDy=0;dashed=1;" edge="1" parent="1" source="F9g1RhkNLmYPvMSbBIRF-6">
          <mxGeometry relative="1" as="geometry">
            <mxPoint x="360" y="220" as="sourcePoint" />
            <mxPoint x="390" y="120" as="targetPoint" />
            <Array as="points">
              <mxPoint x="460" y="140" />
            </Array>
          </mxGeometry>
        </mxCell>
        <mxCell id="F9g1RhkNLmYPvMSbBIRF-28" value="&amp;lt;&amp;lt;extend&amp;gt;&amp;gt;" style="edgeLabel;resizable=0;html=1;;align=center;verticalAlign=middle;" connectable="0" vertex="1" parent="F9g1RhkNLmYPvMSbBIRF-27">
          <mxGeometry relative="1" as="geometry">
            <mxPoint x="-30" y="-10" as="offset" />
          </mxGeometry>
        </mxCell>
        <mxCell id="F9g1RhkNLmYPvMSbBIRF-29" value="" style="endArrow=none;html=1;rounded=0;exitX=1;exitY=0.5;exitDx=0;exitDy=0;entryX=0;entryY=0.5;entryDx=0;entryDy=0;" edge="1" parent="1" source="F9g1RhkNLmYPvMSbBIRF-7" target="F9g1RhkNLmYPvMSbBIRF-17">
          <mxGeometry width="50" height="50" relative="1" as="geometry">
            <mxPoint x="380" y="310" as="sourcePoint" />
            <mxPoint x="430" y="260" as="targetPoint" />
          </mxGeometry>
        </mxCell>
        <mxCell id="F9g1RhkNLmYPvMSbBIRF-30" value="" style="endArrow=none;html=1;rounded=0;exitX=1;exitY=0.5;exitDx=0;exitDy=0;" edge="1" parent="1" source="F9g1RhkNLmYPvMSbBIRF-8">
          <mxGeometry width="50" height="50" relative="1" as="geometry">
            <mxPoint x="530" y="80" as="sourcePoint" />
            <mxPoint x="790" y="310" as="targetPoint" />
          </mxGeometry>
        </mxCell>
        <mxCell id="F9g1RhkNLmYPvMSbBIRF-31" value="" style="endArrow=none;html=1;rounded=0;exitX=1;exitY=0.5;exitDx=0;exitDy=0;" edge="1" parent="1" source="F9g1RhkNLmYPvMSbBIRF-11">
          <mxGeometry width="50" height="50" relative="1" as="geometry">
            <mxPoint x="540" y="90" as="sourcePoint" />
            <mxPoint x="790" y="310" as="targetPoint" />
          </mxGeometry>
        </mxCell>
        <mxCell id="F9g1RhkNLmYPvMSbBIRF-32" value="" style="endArrow=none;html=1;rounded=0;exitX=1;exitY=0.5;exitDx=0;exitDy=0;" edge="1" parent="1" source="F9g1RhkNLmYPvMSbBIRF-12">
          <mxGeometry width="50" height="50" relative="1" as="geometry">
            <mxPoint x="710" y="390" as="sourcePoint" />
            <mxPoint x="790" y="310" as="targetPoint" />
          </mxGeometry>
        </mxCell>
        <mxCell id="F9g1RhkNLmYPvMSbBIRF-33" value="" style="endArrow=none;html=1;rounded=0;exitX=1;exitY=0.5;exitDx=0;exitDy=0;entryX=0;entryY=0.5;entryDx=0;entryDy=0;" edge="1" parent="1" source="F9g1RhkNLmYPvMSbBIRF-13" target="F9g1RhkNLmYPvMSbBIRF-17">
          <mxGeometry width="50" height="50" relative="1" as="geometry">
            <mxPoint x="400" y="340" as="sourcePoint" />
            <mxPoint x="450" y="290" as="targetPoint" />
          </mxGeometry>
        </mxCell>
        <mxCell id="F9g1RhkNLmYPvMSbBIRF-34" value="" style="endArrow=none;html=1;rounded=0;exitX=1;exitY=0.5;exitDx=0;exitDy=0;" edge="1" parent="1" source="F9g1RhkNLmYPvMSbBIRF-14">
          <mxGeometry width="50" height="50" relative="1" as="geometry">
            <mxPoint x="520" y="340" as="sourcePoint" />
            <mxPoint x="790" y="310" as="targetPoint" />
          </mxGeometry>
        </mxCell>
        <mxCell id="F9g1RhkNLmYPvMSbBIRF-35" value="" style="endArrow=none;html=1;rounded=0;exitX=1;exitY=0.5;exitDx=0;exitDy=0;" edge="1" parent="1" source="F9g1RhkNLmYPvMSbBIRF-15">
          <mxGeometry width="50" height="50" relative="1" as="geometry">
            <mxPoint x="520" y="450" as="sourcePoint" />
            <mxPoint x="790" y="310" as="targetPoint" />
          </mxGeometry>
        </mxCell>
        <mxCell id="F9g1RhkNLmYPvMSbBIRF-36" value="" style="endArrow=none;html=1;rounded=0;exitX=1;exitY=0.5;exitDx=0;exitDy=0;" edge="1" parent="1" source="F9g1RhkNLmYPvMSbBIRF-16">
          <mxGeometry width="50" height="50" relative="1" as="geometry">
            <mxPoint x="520" y="530" as="sourcePoint" />
            <mxPoint x="790" y="310" as="targetPoint" />
          </mxGeometry>
        </mxCell>
        <mxCell id="F9g1RhkNLmYPvMSbBIRF-38" value="Kakao&lt;br&gt;auth server" style="rounded=0;whiteSpace=wrap;html=1;" vertex="1" parent="1">
          <mxGeometry x="790" y="-30" width="90" height="60" as="geometry" />
        </mxCell>
        <mxCell id="F9g1RhkNLmYPvMSbBIRF-39" value="Kakao Auth" style="rounded=1;whiteSpace=wrap;html=1;fillColor=#fff2cc;strokeColor=#d6b656;" vertex="1" parent="1">
          <mxGeometry x="460" y="-30" width="120" height="60" as="geometry" />
        </mxCell>
        <mxCell id="F9g1RhkNLmYPvMSbBIRF-40" value="" style="endArrow=none;html=1;rounded=0;exitX=1;exitY=0.5;exitDx=0;exitDy=0;entryX=0;entryY=0.5;entryDx=0;entryDy=0;" edge="1" parent="1" source="F9g1RhkNLmYPvMSbBIRF-39" target="F9g1RhkNLmYPvMSbBIRF-38">
          <mxGeometry width="50" height="50" relative="1" as="geometry">
            <mxPoint x="520" y="140" as="sourcePoint" />
            <mxPoint x="570" y="90" as="targetPoint" />
          </mxGeometry>
        </mxCell>
        <mxCell id="F9g1RhkNLmYPvMSbBIRF-42" value="" style="endArrow=none;html=1;rounded=0;entryX=0;entryY=0.5;entryDx=0;entryDy=0;exitX=1;exitY=0.5;exitDx=0;exitDy=0;" edge="1" parent="1" source="F9g1RhkNLmYPvMSbBIRF-6" target="F9g1RhkNLmYPvMSbBIRF-7">
          <mxGeometry width="50" height="50" relative="1" as="geometry">
            <mxPoint x="350" y="120" as="sourcePoint" />
            <mxPoint x="570" y="120" as="targetPoint" />
          </mxGeometry>
        </mxCell>
        <mxCell id="F9g1RhkNLmYPvMSbBIRF-43" value="" style="endArrow=none;html=1;rounded=0;entryX=0;entryY=0.5;entryDx=0;entryDy=0;" edge="1" parent="1" target="F9g1RhkNLmYPvMSbBIRF-39">
          <mxGeometry width="50" height="50" relative="1" as="geometry">
            <mxPoint x="350" y="120" as="sourcePoint" />
            <mxPoint x="570" y="120" as="targetPoint" />
          </mxGeometry>
        </mxCell>
        <mxCell id="F9g1RhkNLmYPvMSbBIRF-46" value="" style="endArrow=classic;html=1;rounded=0;exitX=0;exitY=0.5;exitDx=0;exitDy=0;entryX=1;entryY=0.5;entryDx=0;entryDy=0;" edge="1" parent="1" source="F9g1RhkNLmYPvMSbBIRF-9" target="F9g1RhkNLmYPvMSbBIRF-4">
          <mxGeometry width="50" height="50" relative="1" as="geometry">
            <mxPoint x="340" y="420" as="sourcePoint" />
            <mxPoint x="390" y="370" as="targetPoint" />
          </mxGeometry>
        </mxCell>
        <mxCell id="F9g1RhkNLmYPvMSbBIRF-47" value="" style="endArrow=classic;html=1;rounded=0;exitX=0;exitY=0.5;exitDx=0;exitDy=0;entryX=1;entryY=0.5;entryDx=0;entryDy=0;" edge="1" parent="1" source="F9g1RhkNLmYPvMSbBIRF-10" target="F9g1RhkNLmYPvMSbBIRF-4">
          <mxGeometry width="50" height="50" relative="1" as="geometry">
            <mxPoint x="350" y="280" as="sourcePoint" />
            <mxPoint x="300" y="280" as="targetPoint" />
          </mxGeometry>
        </mxCell>
        <mxCell id="F9g1RhkNLmYPvMSbBIRF-48" value="" style="endArrow=classic;html=1;rounded=0;exitX=1;exitY=0.5;exitDx=0;exitDy=0;entryX=0.5;entryY=1;entryDx=0;entryDy=0;dashed=1;" edge="1" parent="1" source="F9g1RhkNLmYPvMSbBIRF-5" target="F9g1RhkNLmYPvMSbBIRF-6">
          <mxGeometry relative="1" as="geometry">
            <mxPoint x="360" y="130" as="sourcePoint" />
            <mxPoint x="470" y="150" as="targetPoint" />
          </mxGeometry>
        </mxCell>
        <mxCell id="F9g1RhkNLmYPvMSbBIRF-49" value="&amp;lt;&amp;lt; include &amp;gt;&amp;gt;" style="edgeLabel;resizable=0;html=1;;align=center;verticalAlign=middle;" connectable="0" vertex="1" parent="F9g1RhkNLmYPvMSbBIRF-48">
          <mxGeometry relative="1" as="geometry">
            <mxPoint x="10" y="-50" as="offset" />
          </mxGeometry>
        </mxCell>
        <mxCell id="F9g1RhkNLmYPvMSbBIRF-50" value="" style="endArrow=classic;html=1;rounded=0;exitX=0;exitY=0.5;exitDx=0;exitDy=0;entryX=1;entryY=0.5;entryDx=0;entryDy=0;dashed=1;" edge="1" parent="1" source="F9g1RhkNLmYPvMSbBIRF-16" target="F9g1RhkNLmYPvMSbBIRF-5">
          <mxGeometry relative="1" as="geometry">
            <mxPoint x="300" y="400" as="sourcePoint" />
            <mxPoint x="340" y="160" as="targetPoint" />
          </mxGeometry>
        </mxCell>
        <mxCell id="F9g1RhkNLmYPvMSbBIRF-51" value="&amp;lt;&amp;lt; extend &amp;gt;&amp;gt;" style="edgeLabel;resizable=0;html=1;;align=center;verticalAlign=middle;" connectable="0" vertex="1" parent="F9g1RhkNLmYPvMSbBIRF-50">
          <mxGeometry relative="1" as="geometry">
            <mxPoint x="-15" y="-15" as="offset" />
          </mxGeometry>
        </mxCell>
        <mxCell id="F9g1RhkNLmYPvMSbBIRF-52" value="" style="endArrow=classic;html=1;rounded=0;exitX=0.016;exitY=0.401;exitDx=0;exitDy=0;dashed=1;exitPerimeter=0;entryX=1;entryY=0.5;entryDx=0;entryDy=0;" edge="1" parent="1" source="F9g1RhkNLmYPvMSbBIRF-15" target="F9g1RhkNLmYPvMSbBIRF-5">
          <mxGeometry relative="1" as="geometry">
            <mxPoint x="570" y="650" as="sourcePoint" />
            <mxPoint x="290" y="390" as="targetPoint" />
          </mxGeometry>
        </mxCell>
        <mxCell id="F9g1RhkNLmYPvMSbBIRF-53" value="&amp;lt;&amp;lt; extend &amp;gt;&amp;gt;" style="edgeLabel;resizable=0;html=1;;align=center;verticalAlign=middle;" connectable="0" vertex="1" parent="F9g1RhkNLmYPvMSbBIRF-52">
          <mxGeometry relative="1" as="geometry">
            <mxPoint x="74" y="43" as="offset" />
          </mxGeometry>
        </mxCell>
        <mxCell id="F9g1RhkNLmYPvMSbBIRF-54" value="" style="endArrow=classic;html=1;rounded=0;exitX=0;exitY=0.5;exitDx=0;exitDy=0;dashed=1;entryX=1;entryY=0.5;entryDx=0;entryDy=0;" edge="1" parent="1" source="F9g1RhkNLmYPvMSbBIRF-14" target="F9g1RhkNLmYPvMSbBIRF-5">
          <mxGeometry relative="1" as="geometry">
            <mxPoint x="580" y="660" as="sourcePoint" />
            <mxPoint x="290" y="390" as="targetPoint" />
          </mxGeometry>
        </mxCell>
        <mxCell id="F9g1RhkNLmYPvMSbBIRF-55" value="&amp;lt;&amp;lt; extend &amp;gt;&amp;gt;" style="edgeLabel;resizable=0;html=1;;align=center;verticalAlign=middle;" connectable="0" vertex="1" parent="F9g1RhkNLmYPvMSbBIRF-54">
          <mxGeometry relative="1" as="geometry">
            <mxPoint x="30" y="5" as="offset" />
          </mxGeometry>
        </mxCell>
        <mxCell id="F9g1RhkNLmYPvMSbBIRF-56" value="" style="endArrow=classic;html=1;rounded=0;exitX=0;exitY=0.5;exitDx=0;exitDy=0;dashed=1;entryX=1;entryY=0.5;entryDx=0;entryDy=0;" edge="1" parent="1" source="F9g1RhkNLmYPvMSbBIRF-11" target="F9g1RhkNLmYPvMSbBIRF-9">
          <mxGeometry relative="1" as="geometry">
            <mxPoint x="570" y="510" as="sourcePoint" />
            <mxPoint x="300" y="460" as="targetPoint" />
          </mxGeometry>
        </mxCell>
        <mxCell id="F9g1RhkNLmYPvMSbBIRF-57" value="&amp;lt;&amp;lt; extend &amp;gt;&amp;gt;" style="edgeLabel;resizable=0;html=1;;align=center;verticalAlign=middle;" connectable="0" vertex="1" parent="F9g1RhkNLmYPvMSbBIRF-56">
          <mxGeometry relative="1" as="geometry">
            <mxPoint x="10" y="1" as="offset" />
          </mxGeometry>
        </mxCell>
        <mxCell id="F9g1RhkNLmYPvMSbBIRF-60" value="" style="endArrow=classic;html=1;rounded=0;exitX=0;exitY=0.5;exitDx=0;exitDy=0;dashed=1;entryX=1;entryY=0.5;entryDx=0;entryDy=0;" edge="1" parent="1" source="F9g1RhkNLmYPvMSbBIRF-12" target="F9g1RhkNLmYPvMSbBIRF-9">
          <mxGeometry relative="1" as="geometry">
            <mxPoint x="580" y="520" as="sourcePoint" />
            <mxPoint x="310" y="470" as="targetPoint" />
          </mxGeometry>
        </mxCell>
        <mxCell id="F9g1RhkNLmYPvMSbBIRF-61" value="&amp;lt;&amp;lt; extend &amp;gt;&amp;gt;" style="edgeLabel;resizable=0;html=1;;align=center;verticalAlign=middle;" connectable="0" vertex="1" parent="F9g1RhkNLmYPvMSbBIRF-60">
          <mxGeometry relative="1" as="geometry">
            <mxPoint y="5" as="offset" />
          </mxGeometry>
        </mxCell>
        <mxCell id="F9g1RhkNLmYPvMSbBIRF-62" value="" style="endArrow=classic;html=1;rounded=0;exitX=0;exitY=0.5;exitDx=0;exitDy=0;dashed=1;entryX=1;entryY=0.5;entryDx=0;entryDy=0;" edge="1" parent="1" source="F9g1RhkNLmYPvMSbBIRF-13" target="F9g1RhkNLmYPvMSbBIRF-9">
          <mxGeometry relative="1" as="geometry">
            <mxPoint x="590" y="530" as="sourcePoint" />
            <mxPoint x="320" y="480" as="targetPoint" />
          </mxGeometry>
        </mxCell>
        <mxCell id="F9g1RhkNLmYPvMSbBIRF-63" value="&amp;lt;&amp;lt; extend &amp;gt;&amp;gt;" style="edgeLabel;resizable=0;html=1;;align=center;verticalAlign=middle;" connectable="0" vertex="1" parent="F9g1RhkNLmYPvMSbBIRF-62">
          <mxGeometry relative="1" as="geometry">
            <mxPoint x="1" y="-4" as="offset" />
          </mxGeometry>
        </mxCell>
        <mxCell id="F9g1RhkNLmYPvMSbBIRF-64" value="" style="endArrow=classic;html=1;rounded=0;exitX=0;exitY=0.5;exitDx=0;exitDy=0;dashed=1;entryX=1;entryY=0.5;entryDx=0;entryDy=0;" edge="1" parent="1" source="F9g1RhkNLmYPvMSbBIRF-12" target="F9g1RhkNLmYPvMSbBIRF-10">
          <mxGeometry relative="1" as="geometry">
            <mxPoint x="600" y="540" as="sourcePoint" />
            <mxPoint x="330" y="490" as="targetPoint" />
          </mxGeometry>
        </mxCell>
        <mxCell id="F9g1RhkNLmYPvMSbBIRF-65" value="&amp;lt;&amp;lt; extend &amp;gt;&amp;gt;" style="edgeLabel;resizable=0;html=1;;align=center;verticalAlign=middle;" connectable="0" vertex="1" parent="F9g1RhkNLmYPvMSbBIRF-64">
          <mxGeometry relative="1" as="geometry">
            <mxPoint x="-10" y="5" as="offset" />
          </mxGeometry>
        </mxCell>
        <mxCell id="F9g1RhkNLmYPvMSbBIRF-68" value="" style="endArrow=classic;html=1;rounded=0;exitX=0;exitY=0.5;exitDx=0;exitDy=0;dashed=1;entryX=1;entryY=0.5;entryDx=0;entryDy=0;" edge="1" parent="1" source="F9g1RhkNLmYPvMSbBIRF-13" target="F9g1RhkNLmYPvMSbBIRF-10">
          <mxGeometry relative="1" as="geometry">
            <mxPoint x="610" y="550" as="sourcePoint" />
            <mxPoint x="340" y="500" as="targetPoint" />
          </mxGeometry>
        </mxCell>
        <mxCell id="F9g1RhkNLmYPvMSbBIRF-69" value="&amp;lt;&amp;lt; extend &amp;gt;&amp;gt;" style="edgeLabel;resizable=0;html=1;;align=center;verticalAlign=middle;" connectable="0" vertex="1" parent="F9g1RhkNLmYPvMSbBIRF-68">
          <mxGeometry relative="1" as="geometry">
            <mxPoint x="5" y="5" as="offset" />
          </mxGeometry>
        </mxCell>
      </root>
    </mxGraphModel>
  </diagram>
</mxfile>
